<?xml version="1.0" encoding="UTF-8" standalone="no"?>
<!DOCTYPE svg PUBLIC "-//W3C//DTD SVG 1.1//EN"
 "http://www.w3.org/Graphics/SVG/1.1/DTD/svg11.dtd">
<!-- Generated by graphviz version 2.40.1 (20161225.0304)
 -->
<!-- Title: dependencies Pages: 1 -->
<svg width="1252pt" height="284pt"
 viewBox="0.00 0.00 1252.00 284.00" xmlns="http://www.w3.org/2000/svg" xmlns:xlink="http://www.w3.org/1999/xlink">
<g id="graph0" class="graph" transform="scale(1 1) rotate(0) translate(4 280)">
<title>dependencies</title>
<polygon fill="#ffffff" stroke="transparent" points="-4,4 -4,-280 1248,-280 1248,4 -4,4"/>
<text text-anchor="start" x="601.0091" y="-42.4" font-family="sans-serif" font-weight="bold" font-size="14.00" fill="#000000">Legend</text>
<polygon fill="#ffffb3" stroke="transparent" points="388,-10 388,-30 408,-30 408,-10 388,-10"/>
<text text-anchor="start" x="411.629" y="-15.4" font-family="sans-serif" font-size="14.00" fill="#000000"> &#160;Declarations</text>
<polygon fill="#8dd3c7" stroke="transparent" points="501,-10 501,-30 521,-30 521,-10 501,-10"/>
<text text-anchor="start" x="524.7251" y="-15.4" font-family="sans-serif" font-size="14.00" fill="#000000"> &#160;Module</text>
<polygon fill="#80b1d3" stroke="transparent" points="587,-10 587,-30 607,-30 607,-10 587,-10"/>
<text text-anchor="start" x="610.7812" y="-15.4" font-family="sans-serif" font-size="14.00" fill="#000000"> &#160;Bootstrap</text>
<polygon fill="#fdb462" stroke="transparent" points="684,-10 684,-30 704,-30 704,-10 684,-10"/>
<text text-anchor="start" x="707.6732" y="-15.4" font-family="sans-serif" font-size="14.00" fill="#000000"> &#160;Providers</text>
<polygon fill="#fb8072" stroke="transparent" points="780,-10 780,-30 800,-30 800,-10 780,-10"/>
<text text-anchor="start" x="803.7258" y="-15.4" font-family="sans-serif" font-size="14.00" fill="#000000"> &#160;Exports</text>
<g id="clust1" class="cluster">
<title>cluster_AppModule</title>
<polygon fill="none" stroke="#000000" stroke-dasharray="1,5" points="8,-70 8,-268 1236,-268 1236,-70 8,-70"/>
</g>
<g id="clust2" class="cluster">
<title>cluster_AppModule_declarations</title>
<polygon fill="none" stroke="#000000" points="326,-78 326,-130 1228,-130 1228,-78 326,-78"/>
</g>
<g id="clust9" class="cluster">
<title>cluster_AppModule_imports</title>
<polygon fill="none" stroke="#000000" points="174,-78 174,-130 318,-130 318,-78 174,-78"/>
</g>
<g id="clust11" class="cluster">
<title>cluster_AppModule_bootstrap</title>
<polygon fill="none" stroke="#000000" points="574,-208 574,-260 698,-260 698,-208 574,-208"/>
</g>
<g id="clust12" class="cluster">
<title>cluster_AppModule_providers</title>
<polygon fill="none" stroke="#000000" points="16,-78 16,-130 166,-130 166,-78 16,-78"/>
</g>
<!-- AppComponent -->
<g id="node1" class="node">
<title>AppComponent</title>
<polygon fill="#ffffb3" stroke="#000000" points="1219.9399,-122 1114.0601,-122 1114.0601,-86 1219.9399,-86 1219.9399,-122"/>
<text text-anchor="middle" x="1167" y="-99.8" font-family="Times,serif" font-size="14.00" fill="#000000">AppComponent</text>
</g>
<!-- AppModule -->
<g id="node7" class="node">
<title>AppModule</title>
<polygon fill="#8dd3c7" stroke="#000000" points="677.6571,-187 674.6571,-191 653.6571,-191 650.6571,-187 594.3429,-187 594.3429,-151 677.6571,-151 677.6571,-187"/>
<text text-anchor="middle" x="636" y="-164.8" font-family="Times,serif" font-size="14.00" fill="#000000">AppModule</text>
</g>
<!-- AppComponent&#45;&gt;AppModule -->
<g id="edge1" class="edge">
<title>AppComponent&#45;&gt;AppModule</title>
<path fill="none" stroke="#000000" d="M1167,-122.2921C1167,-144.2057 1167,-178 1167,-178 1167,-178 687.6667,-178 687.6667,-178"/>
<polygon fill="#000000" stroke="#000000" points="687.6667,-174.5001 677.6667,-178 687.6666,-181.5001 687.6667,-174.5001"/>
</g>
<!-- CapitalizePipe -->
<g id="node2" class="node">
<title>CapitalizePipe</title>
<polygon fill="#ffffb3" stroke="#000000" points="1095.6458,-122 998.3542,-122 998.3542,-86 1095.6458,-86 1095.6458,-122"/>
<text text-anchor="middle" x="1047" y="-99.8" font-family="Times,serif" font-size="14.00" fill="#000000">CapitalizePipe</text>
</g>
<!-- CapitalizePipe&#45;&gt;AppModule -->
<g id="edge2" class="edge">
<title>CapitalizePipe&#45;&gt;AppModule</title>
<path fill="none" stroke="#000000" d="M1047,-122.1061C1047,-141.3391 1047,-169 1047,-169 1047,-169 687.6707,-169 687.6707,-169"/>
<polygon fill="#000000" stroke="#000000" points="687.6707,-165.5001 677.6707,-169 687.6706,-172.5001 687.6707,-165.5001"/>
</g>
<!-- HeroProfileComponent -->
<g id="node3" class="node">
<title>HeroProfileComponent</title>
<polygon fill="#ffffb3" stroke="#000000" points="979.9144,-122 832.0856,-122 832.0856,-86 979.9144,-86 979.9144,-122"/>
<text text-anchor="middle" x="906" y="-99.8" font-family="Times,serif" font-size="14.00" fill="#000000">HeroProfileComponent</text>
</g>
<!-- HeroProfileComponent&#45;&gt;AppModule -->
<g id="edge3" class="edge">
<title>HeroProfileComponent&#45;&gt;AppModule</title>
<path fill="none" stroke="#000000" d="M906,-122.027C906,-138.3976 906,-160 906,-160 906,-160 687.8913,-160 687.8913,-160"/>
<polygon fill="#000000" stroke="#000000" points="687.8913,-156.5001 677.8913,-160 687.8912,-163.5001 687.8913,-156.5001"/>
</g>
<!-- ListadoDeHeroesComponent -->
<g id="node4" class="node">
<title>ListadoDeHeroesComponent</title>
<polygon fill="#ffffb3" stroke="#000000" points="814.7878,-122 635.2122,-122 635.2122,-86 814.7878,-86 814.7878,-122"/>
<text text-anchor="middle" x="725" y="-99.8" font-family="Times,serif" font-size="14.00" fill="#000000">ListadoDeHeroesComponent</text>
</g>
<!-- ListadoDeHeroesComponent&#45;&gt;AppModule -->
<g id="edge4" class="edge">
<title>ListadoDeHeroesComponent&#45;&gt;AppModule</title>
<path fill="none" stroke="#000000" d="M656.5922,-122.1061C656.5922,-122.1061 656.5922,-140.991 656.5922,-140.991"/>
<polygon fill="#000000" stroke="#000000" points="653.0923,-140.9909 656.5922,-150.991 660.0923,-140.991 653.0923,-140.9909"/>
</g>
<!-- ModalPollComponent -->
<g id="node5" class="node">
<title>ModalPollComponent</title>
<polygon fill="#ffffb3" stroke="#000000" points="617.4467,-122 476.5533,-122 476.5533,-86 617.4467,-86 617.4467,-122"/>
<text text-anchor="middle" x="547" y="-99.8" font-family="Times,serif" font-size="14.00" fill="#000000">ModalPollComponent</text>
</g>
<!-- ModalPollComponent&#45;&gt;AppModule -->
<g id="edge5" class="edge">
<title>ModalPollComponent&#45;&gt;AppModule</title>
<path fill="none" stroke="#000000" d="M605.6974,-122.1061C605.6974,-122.1061 605.6974,-140.991 605.6974,-140.991"/>
<polygon fill="#000000" stroke="#000000" points="602.1975,-140.9909 605.6974,-150.991 609.1975,-140.991 602.1975,-140.9909"/>
</g>
<!-- SpinnerComponent -->
<g id="node6" class="node">
<title>SpinnerComponent</title>
<polygon fill="#ffffb3" stroke="#000000" points="458.3809,-122 333.6191,-122 333.6191,-86 458.3809,-86 458.3809,-122"/>
<text text-anchor="middle" x="396" y="-99.8" font-family="Times,serif" font-size="14.00" fill="#000000">SpinnerComponent</text>
</g>
<!-- SpinnerComponent&#45;&gt;AppModule -->
<g id="edge6" class="edge">
<title>SpinnerComponent&#45;&gt;AppModule</title>
<path fill="none" stroke="#000000" d="M396,-122.027C396,-138.3976 396,-160 396,-160 396,-160 584.1952,-160 584.1952,-160"/>
<polygon fill="#000000" stroke="#000000" points="584.1952,-163.5001 594.1952,-160 584.1952,-156.5001 584.1952,-163.5001"/>
</g>
<!-- AppComponent  -->
<g id="node9" class="node">
<title>AppComponent </title>
<polygon fill="#80b1d3" stroke="#000000" points="690.439,-252 581.561,-252 581.561,-216 690.439,-216 690.439,-252"/>
<text text-anchor="middle" x="636" y="-229.8" font-family="Times,serif" font-size="14.00" fill="#000000">AppComponent </text>
</g>
<!-- AppModule&#45;&gt;AppComponent  -->
<g id="edge8" class="edge">
<title>AppModule&#45;&gt;AppComponent </title>
<path fill="none" stroke="#000000" stroke-dasharray="1,5" d="M636,-187.1061C636,-187.1061 636,-205.991 636,-205.991"/>
<polygon fill="#000000" stroke="#000000" points="632.5001,-205.9909 636,-215.991 639.5001,-205.991 632.5001,-205.9909"/>
</g>
<!-- AppRoutingModule -->
<g id="node8" class="node">
<title>AppRoutingModule</title>
<polygon fill="#8dd3c7" stroke="#000000" points="310.2744,-122 307.2744,-126 286.2744,-126 283.2744,-122 181.7256,-122 181.7256,-86 310.2744,-86 310.2744,-122"/>
<text text-anchor="middle" x="246" y="-99.8" font-family="Times,serif" font-size="14.00" fill="#000000">AppRoutingModule</text>
</g>
<!-- AppRoutingModule&#45;&gt;AppModule -->
<g id="edge7" class="edge">
<title>AppRoutingModule&#45;&gt;AppModule</title>
<path fill="none" stroke="#000000" d="M246,-122.1061C246,-141.3391 246,-169 246,-169 246,-169 584.2632,-169 584.2632,-169"/>
<polygon fill="#000000" stroke="#000000" points="584.2632,-172.5001 594.2632,-169 584.2631,-165.5001 584.2632,-172.5001"/>
</g>
<!-- HeroesService -->
<g id="node10" class="node">
<title>HeroesService</title>
<ellipse fill="#fdb462" stroke="#000000" cx="91" cy="-104" rx="67.1715" ry="18"/>
<text text-anchor="middle" x="91" y="-99.8" font-family="Times,serif" font-size="14.00" fill="#000000">HeroesService</text>
</g>
<!-- HeroesService&#45;&gt;AppModule -->
<g id="edge9" class="edge">
<title>HeroesService&#45;&gt;AppModule</title>
<path fill="none" stroke="#000000" d="M91,-122.2921C91,-144.2057 91,-178 91,-178 91,-178 584.1397,-178 584.1397,-178"/>
<polygon fill="#000000" stroke="#000000" points="584.1397,-181.5001 594.1397,-178 584.1397,-174.5001 584.1397,-181.5001"/>
</g>
</g>
</svg>
